<svg width="200" height="137" viewBox="0 0 200 137" fill="none" xmlns="http://www.w3.org/2000/svg">
<path d="M0 0H200V137H0V0Z" fill="#FEECC9"/>
<path d="M91.4213 55.1578C92.9201 55.1578 94.1352 53.9914 94.1352 52.5525C94.1352 51.1137 92.9201 49.9473 91.4213 49.9473C89.9225 49.9473 88.7075 51.1137 88.7075 52.5525C88.7075 53.9914 89.9225 55.1578 91.4213 55.1578Z" stroke="#FEA800" stroke-linecap="round" stroke-linejoin="round"/>
<path d="M82.375 59.5C82.375 51.7224 82.375 47.8319 84.8916 45.4159C87.4082 43 91.459 43 99.5625 43C107.664 43 111.717 43 114.233 45.4159C116.75 47.8319 116.75 51.7207 116.75 59.5C116.75 67.2776 116.75 71.1681 114.233 73.5841C111.717 76 107.666 76 99.5625 76C91.4609 76 87.4082 76 84.8916 73.5841C82.375 71.1681 82.375 67.2793 82.375 59.5Z" stroke="#FEA800" stroke-linecap="round" stroke-linejoin="round"/>
<path d="M87.5835 75C95.4934 65.925 103.677 54.9569 116.747 63.0471" stroke="#FEA800" stroke-linecap="round" stroke-linejoin="round"/>
<path d="M81.064 84.402V93H80.482C80.39 93 80.312 92.984 80.248 92.952C80.188 92.92 80.128 92.866 80.068 92.79L75.094 86.31C75.102 86.41 75.108 86.508 75.112 86.604C75.116 86.7 75.118 86.79 75.118 86.874V93H74.098V84.402H74.698C74.75 84.402 74.794 84.406 74.83 84.414C74.866 84.418 74.898 84.428 74.926 84.444C74.954 84.456 74.982 84.476 75.01 84.504C75.038 84.528 75.068 84.56 75.1 84.6L80.074 91.074C80.066 90.97 80.058 90.87 80.05 90.774C80.046 90.674 80.044 90.58 80.044 90.492V84.402H81.064ZM85.3846 86.826C85.8286 86.826 86.2286 86.9 86.5846 87.048C86.9406 87.196 87.2446 87.406 87.4966 87.678C87.7486 87.95 87.9406 88.28 88.0726 88.668C88.2086 89.052 88.2766 89.482 88.2766 89.958C88.2766 90.438 88.2086 90.87 88.0726 91.254C87.9406 91.638 87.7486 91.966 87.4966 92.238C87.2446 92.51 86.9406 92.72 86.5846 92.868C86.2286 93.012 85.8286 93.084 85.3846 93.084C84.9366 93.084 84.5326 93.012 84.1726 92.868C83.8166 92.72 83.5126 92.51 83.2606 92.238C83.0086 91.966 82.8146 91.638 82.6786 91.254C82.5466 90.87 82.4806 90.438 82.4806 89.958C82.4806 89.482 82.5466 89.052 82.6786 88.668C82.8146 88.28 83.0086 87.95 83.2606 87.678C83.5126 87.406 83.8166 87.196 84.1726 87.048C84.5326 86.9 84.9366 86.826 85.3846 86.826ZM85.3846 92.25C85.9846 92.25 86.4326 92.05 86.7286 91.65C87.0246 91.246 87.1726 90.684 87.1726 89.964C87.1726 89.24 87.0246 88.676 86.7286 88.272C86.4326 87.868 85.9846 87.666 85.3846 87.666C85.0806 87.666 84.8146 87.718 84.5866 87.822C84.3626 87.926 84.1746 88.076 84.0226 88.272C83.8746 88.468 83.7626 88.71 83.6866 88.998C83.6146 89.282 83.5786 89.604 83.5786 89.964C83.5786 90.684 83.7266 91.246 84.0226 91.65C84.3226 92.05 84.7766 92.25 85.3846 92.25ZM94.1175 93H92.9535V84.402H94.1175V93ZM95.971 93V86.922H96.613C96.765 86.922 96.859 86.996 96.895 87.144L96.973 87.768C97.197 87.492 97.449 87.266 97.729 87.09C98.009 86.914 98.333 86.826 98.701 86.826C99.109 86.826 99.439 86.94 99.691 87.168C99.947 87.396 100.131 87.704 100.243 88.092C100.331 87.872 100.443 87.682 100.579 87.522C100.719 87.362 100.875 87.23 101.047 87.126C101.219 87.022 101.401 86.946 101.593 86.898C101.789 86.85 101.987 86.826 102.187 86.826C102.507 86.826 102.791 86.878 103.039 86.982C103.291 87.082 103.503 87.23 103.675 87.426C103.851 87.622 103.985 87.864 104.077 88.152C104.169 88.436 104.215 88.762 104.215 89.13V93H103.141V89.13C103.141 88.654 103.037 88.294 102.829 88.05C102.621 87.802 102.321 87.678 101.929 87.678C101.753 87.678 101.585 87.71 101.425 87.774C101.269 87.834 101.131 87.924 101.011 88.044C100.891 88.164 100.795 88.316 100.723 88.5C100.655 88.68 100.621 88.89 100.621 89.13V93H99.547V89.13C99.547 88.642 99.449 88.278 99.253 88.038C99.057 87.798 98.771 87.678 98.395 87.678C98.131 87.678 97.887 87.75 97.663 87.894C97.439 88.034 97.233 88.226 97.045 88.47V93H95.971ZM109.132 90.264C108.64 90.28 108.22 90.32 107.872 90.384C107.528 90.444 107.246 90.524 107.026 90.624C106.81 90.724 106.652 90.842 106.552 90.978C106.456 91.114 106.408 91.266 106.408 91.434C106.408 91.594 106.434 91.732 106.486 91.848C106.538 91.964 106.608 92.06 106.696 92.136C106.788 92.208 106.894 92.262 107.014 92.298C107.138 92.33 107.27 92.346 107.41 92.346C107.598 92.346 107.77 92.328 107.926 92.292C108.082 92.252 108.228 92.196 108.364 92.124C108.504 92.052 108.636 91.966 108.76 91.866C108.888 91.766 109.012 91.652 109.132 91.524V90.264ZM105.682 87.78C106.018 87.456 106.38 87.214 106.768 87.054C107.156 86.894 107.586 86.814 108.058 86.814C108.398 86.814 108.7 86.87 108.964 86.982C109.228 87.094 109.45 87.25 109.63 87.45C109.81 87.65 109.946 87.892 110.038 88.176C110.13 88.46 110.176 88.772 110.176 89.112V93H109.702C109.598 93 109.518 92.984 109.462 92.952C109.406 92.916 109.362 92.848 109.33 92.748L109.21 92.172C109.05 92.32 108.894 92.452 108.742 92.568C108.59 92.68 108.43 92.776 108.262 92.856C108.094 92.932 107.914 92.99 107.722 93.03C107.534 93.074 107.324 93.096 107.092 93.096C106.856 93.096 106.634 93.064 106.426 93C106.218 92.932 106.036 92.832 105.88 92.7C105.728 92.568 105.606 92.402 105.514 92.202C105.426 91.998 105.382 91.758 105.382 91.482C105.382 91.242 105.448 91.012 105.58 90.792C105.712 90.568 105.926 90.37 106.222 90.198C106.518 90.026 106.904 89.886 107.38 89.778C107.856 89.666 108.44 89.602 109.132 89.586V89.112C109.132 88.64 109.03 88.284 108.826 88.044C108.622 87.8 108.324 87.678 107.932 87.678C107.668 87.678 107.446 87.712 107.266 87.78C107.09 87.844 106.936 87.918 106.804 88.002C106.676 88.082 106.564 88.156 106.468 88.224C106.376 88.288 106.284 88.32 106.192 88.32C106.12 88.32 106.058 88.302 106.006 88.266C105.954 88.226 105.91 88.178 105.874 88.122L105.682 87.78ZM113.921 90.03C114.137 90.03 114.327 90 114.491 89.94C114.655 89.88 114.793 89.796 114.905 89.688C115.017 89.58 115.101 89.452 115.157 89.304C115.213 89.152 115.241 88.986 115.241 88.806C115.241 88.434 115.127 88.138 114.899 87.918C114.675 87.698 114.349 87.588 113.921 87.588C113.489 87.588 113.159 87.698 112.931 87.918C112.707 88.138 112.595 88.434 112.595 88.806C112.595 88.986 112.623 89.152 112.679 89.304C112.739 89.452 112.825 89.58 112.937 89.688C113.049 89.796 113.187 89.88 113.351 89.94C113.515 90 113.705 90.03 113.921 90.03ZM115.847 93.33C115.847 93.182 115.805 93.062 115.721 92.97C115.637 92.878 115.523 92.806 115.379 92.754C115.239 92.702 115.075 92.666 114.887 92.646C114.699 92.622 114.499 92.604 114.287 92.592C114.079 92.58 113.867 92.568 113.651 92.556C113.435 92.544 113.227 92.524 113.027 92.496C112.803 92.6 112.619 92.732 112.475 92.892C112.335 93.048 112.265 93.232 112.265 93.444C112.265 93.58 112.299 93.706 112.367 93.822C112.439 93.942 112.547 94.044 112.691 94.128C112.835 94.216 113.015 94.284 113.231 94.332C113.451 94.384 113.709 94.41 114.005 94.41C114.293 94.41 114.551 94.384 114.779 94.332C115.007 94.28 115.199 94.206 115.355 94.11C115.515 94.014 115.637 93.9 115.721 93.768C115.805 93.636 115.847 93.49 115.847 93.33ZM116.933 87.162V87.558C116.933 87.69 116.849 87.774 116.681 87.81L115.991 87.9C116.127 88.164 116.195 88.456 116.195 88.776C116.195 89.072 116.137 89.342 116.021 89.586C115.909 89.826 115.753 90.032 115.553 90.204C115.353 90.376 115.113 90.508 114.833 90.6C114.553 90.692 114.249 90.738 113.921 90.738C113.637 90.738 113.369 90.704 113.117 90.636C112.989 90.716 112.891 90.802 112.823 90.894C112.755 90.982 112.721 91.072 112.721 91.164C112.721 91.308 112.779 91.418 112.895 91.494C113.015 91.566 113.171 91.618 113.363 91.65C113.555 91.682 113.773 91.702 114.017 91.71C114.265 91.718 114.517 91.732 114.773 91.752C115.033 91.768 115.285 91.798 115.529 91.842C115.777 91.886 115.997 91.958 116.189 92.058C116.381 92.158 116.535 92.296 116.651 92.472C116.771 92.648 116.831 92.876 116.831 93.156C116.831 93.416 116.765 93.668 116.633 93.912C116.505 94.156 116.319 94.372 116.075 94.56C115.831 94.752 115.531 94.904 115.175 95.016C114.823 95.132 114.425 95.19 113.981 95.19C113.537 95.19 113.149 95.146 112.817 95.058C112.485 94.97 112.209 94.852 111.989 94.704C111.769 94.556 111.603 94.384 111.491 94.188C111.383 93.996 111.329 93.794 111.329 93.582C111.329 93.282 111.423 93.028 111.611 92.82C111.799 92.612 112.057 92.446 112.385 92.322C112.205 92.242 112.061 92.136 111.953 92.004C111.849 91.868 111.797 91.686 111.797 91.458C111.797 91.37 111.813 91.28 111.845 91.188C111.877 91.092 111.925 90.998 111.989 90.906C112.057 90.81 112.139 90.72 112.235 90.636C112.331 90.552 112.443 90.478 112.571 90.414C112.271 90.246 112.037 90.024 111.869 89.748C111.701 89.468 111.617 89.144 111.617 88.776C111.617 88.48 111.673 88.212 111.785 87.972C111.901 87.728 112.061 87.522 112.265 87.354C112.469 87.182 112.711 87.05 112.991 86.958C113.275 86.866 113.585 86.82 113.921 86.82C114.185 86.82 114.431 86.85 114.659 86.91C114.887 86.966 115.095 87.05 115.283 87.162H116.933ZM122.012 89.298C122.012 89.05 121.976 88.824 121.904 88.62C121.836 88.412 121.734 88.234 121.598 88.086C121.466 87.934 121.304 87.818 121.112 87.738C120.92 87.654 120.702 87.612 120.458 87.612C119.946 87.612 119.54 87.762 119.24 88.062C118.944 88.358 118.76 88.77 118.688 89.298H122.012ZM122.876 92.148C122.744 92.308 122.586 92.448 122.402 92.568C122.218 92.684 122.02 92.78 121.808 92.856C121.6 92.932 121.384 92.988 121.16 93.024C120.936 93.064 120.714 93.084 120.494 93.084C120.074 93.084 119.686 93.014 119.33 92.874C118.978 92.73 118.672 92.522 118.412 92.25C118.156 91.974 117.956 91.634 117.812 91.23C117.668 90.826 117.596 90.362 117.596 89.838C117.596 89.414 117.66 89.018 117.788 88.65C117.92 88.282 118.108 87.964 118.352 87.696C118.596 87.424 118.894 87.212 119.246 87.06C119.598 86.904 119.994 86.826 120.434 86.826C120.798 86.826 121.134 86.888 121.442 87.012C121.754 87.132 122.022 87.308 122.246 87.54C122.474 87.768 122.652 88.052 122.78 88.392C122.908 88.728 122.972 89.112 122.972 89.544C122.972 89.712 122.954 89.824 122.918 89.88C122.882 89.936 122.814 89.964 122.714 89.964H118.652C118.664 90.348 118.716 90.682 118.808 90.966C118.904 91.25 119.036 91.488 119.204 91.68C119.372 91.868 119.572 92.01 119.804 92.106C120.036 92.198 120.296 92.244 120.584 92.244C120.852 92.244 121.082 92.214 121.274 92.154C121.47 92.09 121.638 92.022 121.778 91.95C121.918 91.878 122.034 91.812 122.126 91.752C122.222 91.688 122.304 91.656 122.372 91.656C122.46 91.656 122.528 91.69 122.576 91.758L122.876 92.148Z" fill="#FEA800"/>
</svg>
