<svg width="152" height="35" viewBox="0 0 152 35" fill="none" xmlns="http://www.w3.org/2000/svg">
<mask id="mask0_3998_6529" style="mask-type:luminance" maskUnits="userSpaceOnUse" x="0" y="0" width="152" height="35">
<path d="M151.985 0H0V34.9957H151.985V0Z" fill="white"/>
</mask>
<g mask="url(#mask0_3998_6529)">
<path d="M111.813 10.5752H104.818V34.9956H111.813V10.5752Z" fill="white"/>
<path d="M111.813 0.0761719H104.818L111.813 7.04381V0.0761719Z" fill="#EE4B2B"/>
<path d="M6.9951 10.5752H0V34.9956H6.9951V10.5752Z" fill="white"/>
<path d="M6.9951 0.0761719H0L6.9951 7.04381V0.0761719Z" fill="#EE4B2B"/>
<path fill-rule="evenodd" clip-rule="evenodd" d="M31.4765 0H38.3953V34.9958H35.096L31.4765 31.4637V0ZM17.4108 16.8674L17.4378 16.8946L27.9141 27.3213V17.4749L10.4719 0.0489975L10.4924 2.14838V34.9958H17.4108V16.8674Z" fill="white"/>
<path fill-rule="evenodd" clip-rule="evenodd" d="M56.0986 0.0766602C54.7723 0.193925 53.4566 0.464863 52.1775 0.889331C48.7023 2.0426 45.6775 4.27039 43.5342 7.25522C41.3905 10.2401 40.2378 13.8297 40.2397 17.5126C40.242 21.1955 41.3989 24.7839 43.5458 27.7663C45.6927 30.7487 48.7198 32.973 52.1963 34.1223C55.6725 35.2713 59.4206 35.2872 62.9062 34.1667C66.3918 33.0465 69.4373 30.8476 71.6089 27.8832L66.1416 23.8265C64.8191 25.6324 62.9636 26.972 60.8403 27.6545C58.7167 28.3369 56.4334 28.3274 54.3157 27.6273C52.1979 26.9271 50.3537 25.5721 49.0458 23.7552C47.7379 21.9383 47.0334 19.7523 47.0321 17.5087C47.0308 15.2652 47.733 13.0783 49.0387 11.26C50.3446 9.44155 52.1872 8.0844 54.3043 7.38182C54.8918 7.18679 55.4923 7.04496 56.0986 6.95637V0.0766602ZM59.3227 6.98462C59.8305 7.06793 60.3341 7.18877 60.8286 7.34715C62.9529 8.0272 64.8097 9.36472 66.1345 11.169L71.5969 7.1061C69.4221 4.14421 66.3743 1.9487 62.8874 0.832418C61.7218 0.459251 60.5269 0.213057 59.3227 0.0937345V6.98462Z" fill="white"/>
<path fill-rule="evenodd" clip-rule="evenodd" d="M89.3969 0.0761719H89.5518V0.0772389C91.0049 0.0967247 93.2973 0.382839 94.5806 0.920868C95.9112 1.47853 97.1193 2.29592 98.1372 3.32636C99.156 4.35679 99.9636 5.58008 100.514 6.92641C101.065 8.27277 101.349 9.71573 101.349 11.173C101.349 12.6302 101.065 14.0732 100.514 15.4196C99.9636 16.7659 99.156 17.9892 98.1372 19.0196C97.1193 20.0501 95.9112 20.8675 94.5806 21.4251C94.23 21.5719 93.7996 21.7001 93.3291 21.8091L101.349 34.996H94.1768L86.4223 22.2583H81.9237V34.996H75.1816V16.323H75.1826V15.3376H89.3207C89.8606 15.3376 91.4602 15.2296 91.9599 15.0203C92.4586 14.811 92.9123 14.5043 93.2941 14.1176C93.6765 13.7309 93.9791 13.2718 94.1859 12.7666C94.3926 12.2613 94.4992 11.7198 94.4992 11.173C94.4992 10.6261 94.3926 10.0846 94.1859 9.5794C93.9791 9.07417 93.6765 8.61511 93.2941 8.22841C92.9123 7.84171 92.4586 7.53495 91.9599 7.32568C91.4602 7.11639 89.9365 6.99974 89.3969 6.99974L75.1823 6.99971V0.0761719H89.3969Z" fill="white"/>
<path fill-rule="evenodd" clip-rule="evenodd" d="M143.289 0.0761719H151.957L139.742 15.361L135.408 9.93762L143.289 0.0761719ZM133.679 12.1016L115.384 34.996H124.051L138.013 17.5249L133.679 12.1016Z" fill="white"/>
<path fill-rule="evenodd" clip-rule="evenodd" d="M124.051 0.0761719H115.384L133.667 22.9559L138.001 17.5326L124.051 0.0761719ZM139.73 19.6965L135.397 25.1198L143.289 34.996H151.957L139.73 19.6965Z" fill="white"/>
</g>
</svg>
