<svg width="66" height="26" viewBox="0 0 66 26" fill="none" xmlns="http://www.w3.org/2000/svg">
<g clip-path="url(#clip0_4001_1097)">
<mask id="mask0_4001_1097" style="mask-type:luminance" maskUnits="userSpaceOnUse" x="0" y="0" width="66" height="26">
<path d="M66.0001 0H0.0102539V25.9832H66.0001V0Z" fill="white"/>
</mask>
<g mask="url(#mask0_4001_1097)">
<path d="M54.8764 0H55.019L55.3755 0.575149L55.5894 0.947306L55.9101 1.48862L56.0886 1.79311L56.3738 2.23293L57.0156 3.31556L57.3008 3.75539L57.4788 4.05988L57.978 4.87185L58.4412 5.64999L59.0117 6.56345L59.3682 7.17244L59.5821 7.51079L59.9033 8.05211L60.188 8.52576L60.6158 9.20237L60.8298 9.57456L61.2222 10.2173L61.5788 10.7925L61.8994 11.3338V11.4015H61.9707L62.2559 11.9428L62.4345 12.2135L62.7551 12.721L62.8977 12.9578L63.3609 13.7359L63.8601 14.5479L64.074 14.92L64.3592 15.3599L64.6804 15.9012L65.2149 16.7808L65.5361 17.2883L65.5715 17.4237L65.5002 17.4574H56.4805L56.4092 17.4237V13.8374L56.5164 13.6683L56.9084 13.2961L57.0156 13.1269H57.0869L57.1223 12.9916H57.1936L57.2649 12.8563L57.6214 12.3826L57.8708 12.0781L58.2273 11.5707L58.6551 10.9278L58.6911 10.7587L58.5125 10.5557L58.2273 10.3188L57.978 10.0482L57.6568 9.70986L57.1582 9.06708L57.0869 8.8979H57.0156L56.8017 8.52576L56.5518 8.11973L56.2312 7.47696L55.946 6.83413L55.8034 6.49583L55.7321 6.22514L55.5181 5.58232L55.4468 5.51465H55.2329L55.197 5.54848V9.70986L55.5894 9.91287L55.8387 10.1835L55.946 10.4542V10.7925L55.8747 11.0632L55.6248 11.3676L55.2683 11.5368H55.197L55.1616 17.4237L55.1257 17.4574H54.7691L54.7337 17.4237L54.6978 11.706L54.6271 11.5368L54.1992 11.3338L54.0207 11.1308L53.914 10.8602V10.4542L54.0566 10.1497L54.2346 9.9467L54.6271 9.74369H54.6978V5.51465H54.4485L54.3418 5.61615L54.1992 6.0898L54.0566 6.52961L53.914 6.83413L53.7354 7.27394L53.4147 7.95061L52.9156 8.76256L52.666 9.1347L52.3095 9.57456L51.846 10.1159L51.3826 10.5557H51.3113L51.2756 10.6572L51.2043 10.691L51.24 10.9278L51.4896 11.3338L51.7747 11.7398L52.0243 12.112L52.5234 12.7548L52.8442 13.1269L53.1295 13.4314V13.4991L53.2364 13.5329L53.4503 13.8036V17.4237L53.4147 17.4574H38.4772L38.085 17.4237V17.3898L38.4058 17.3222L38.7267 17.1868L39.2258 16.95L39.6179 16.6117L39.8675 16.2734L40.0458 15.8335L40.1171 15.3937V6.0898L40.1527 0.236826L40.224 0.169162H45.7142L45.7855 0.202994V0.270658L45.2864 0.43982L44.8942 0.676646L44.6803 0.845809L44.4308 1.21797L44.2882 1.62395V15.9012L44.4664 16.341L44.6803 16.6117L44.8229 16.544L45.3577 15.6305L45.6072 15.2584L45.8211 14.8862L46.2846 14.1419L46.4985 13.7359L46.6768 13.4653L46.8193 13.2285L47.1046 12.7886L47.2115 12.5856L47.6393 11.909L47.8532 11.5368L48.281 10.8602L48.4236 10.5895L48.8514 9.91287L49.0653 9.54073L49.3505 9.10092L49.4931 8.83023L49.8853 8.1874L50.2418 7.61225L50.42 7.30778L50.8478 6.63112L51.0261 6.32665L51.3469 5.78533L51.7747 5.07485L52.1313 4.4997L52.666 3.65389L52.8442 3.28173H52.9156L52.9512 3.14641L53.2721 2.60509L53.5216 2.23293L53.6287 2.02994L53.914 1.55629L54.1992 1.11647L54.4131 0.744312L54.6624 0.338323L54.8764 0Z" fill="#3A7060"/>
<path d="M14.2705 0H14.3775L14.5557 0.43982L14.8766 1.31946L15.0192 1.65778L15.2331 2.26676L15.4826 2.90958L15.9817 4.26287L16.1244 4.6012L16.1956 4.87185L16.2313 5.10867L16.053 5.48081L15.6965 6.29282L15.4826 6.83413L15.1974 7.57842L14.9835 8.28891L14.627 9.77753L14.52 10.5557L14.4488 11.0632L14.4131 11.6383V13.0254L14.4488 13.5668L14.627 14.6494L14.8766 15.5967L15.0192 16.0027L15.1974 16.4425L15.447 16.95L15.7322 17.4575L15.9817 17.8635L16.3382 18.3371L16.6591 18.7431L16.9086 18.98L16.873 18.7769L16.5878 18.1341L16.3739 17.6266L16.2669 17.2883L16.053 16.6793L15.8748 16.0027L15.8035 15.7997L15.6609 15.0892L15.5895 14.7847L15.447 13.7359L15.3757 12.8224V11.6045L15.4113 11.0293L15.5183 10.1835L15.6252 9.54073L15.7678 9.03325L15.8391 8.69489L16.16 7.71376L16.3739 7.17244L16.6235 6.66496L16.9086 6.0898L17.1582 5.68382L17.3721 5.31168L17.7643 4.73652L18.3346 3.99221L18.7268 3.55239L19.0477 3.18024L19.2972 2.94341L19.5468 2.67275L20.1885 2.06377L20.6519 1.69162L21.0441 1.35329L21.5076 1.01497L22.2205 0.507485L22.3988 0.541319V6.46199L22.2918 6.63112L21.7927 7.0371L20.8302 7.95061L20.5806 8.22124L20.2598 8.59343L19.9033 9.03325L19.5824 9.47306L19.2972 9.87903L18.7625 10.7248L18.4772 11.2323L18.1921 11.8075L18.0851 12.0443L17.7643 12.8901L17.6217 13.2961L17.3364 14.4464L17.2651 14.9539L17.2295 15.0554L17.1939 15.4275L17.1582 16.2395V16.8485L17.2295 17.965L17.3008 18.2356L17.4077 18.9123L17.5503 19.5213L17.693 19.9611L17.7999 20.3671L17.7286 20.4009H17.2295L16.1244 20.3332L15.2331 20.2656L14.3418 20.164L13.6288 20.0288L13.094 19.9611L12.2028 19.7919L11.5611 19.6227L10.6342 19.3859L9.63592 19.0476L8.92295 18.7769L8.53076 18.6078L7.71083 18.2356L7.21172 17.965L6.64132 17.6266L5.89264 17.1191V17.0515L5.75002 17.0176L5.14398 16.4763L4.93008 16.3072L4.68053 16.0365L4.35968 15.6982L3.93187 15.1569L3.61101 14.6832L3.18321 13.9051L2.96931 13.4314L2.6841 12.6533L2.57715 12.2135L2.5415 11.8751L2.64846 11.8413L3.36146 12.0105L3.75362 12.1458L5.14398 12.5518L5.53615 12.6533L5.82133 12.7548L6.14221 12.8224L6.46305 12.9578L6.57001 13.0254L6.74828 13.3637L6.9978 13.7359L7.31869 14.2096L7.74648 14.7509L8.10297 15.1907L8.49511 15.6305L8.81599 15.9688L9.17248 16.3072V16.3749L9.27944 16.4086L9.81419 16.9162L10.2063 17.2207L10.7767 17.6605L11.7393 18.2695L12.2384 18.5401L12.8445 18.8446L13.308 19.0476L14.1635 19.3521L14.9479 19.5551L15.447 19.6566H15.8748L15.5183 19.4536L14.4844 18.9461L13.914 18.6416L13.5575 18.4048L13.0584 18.1341L12.7019 17.8973L12.2741 17.6266L11.7749 17.2545L11.2045 16.8485L10.8124 16.544L10.2776 16.0703L9.81419 15.6644L9.42206 15.2922L9.17248 15.0215L8.74468 14.5817L8.45945 14.2096L7.9247 13.5329L7.53256 12.9239L7.06911 12.0781L6.89084 11.6722L6.71262 11.2323L6.4987 10.5557L6.32043 9.77753L6.21352 8.62722V8.15357L6.32043 7.07093L6.4987 7.0371L7.03345 7.40929L7.10476 7.44312V7.5108L7.28303 7.57842L7.74648 7.91677L8.13862 8.18741L8.81599 8.66105L9.31509 8.99941L9.63592 9.27004L9.84985 10.1835L9.99246 10.691L10.1707 11.3338L10.3133 11.6722L10.5985 12.4841L10.7411 12.7886L10.9194 13.1946L11.2758 13.9389L11.4541 14.2773L11.7749 14.8524L12.2028 15.529L12.5949 16.0703V16.138H12.6662L13.094 16.6793L13.4505 17.0515L13.7001 17.3222L14.2349 17.8296L14.627 18.1341L14.9479 18.371L15.2331 18.5739L15.7322 18.8784L16.1956 19.1152H16.3026L15.7322 18.6416L14.8766 17.8296L14.627 17.559L14.3062 17.2207L14.0922 16.9838V16.9162H14.0209L13.8071 16.6455L13.5575 16.3072V16.2395H13.4862L13.2367 15.8674L12.9514 15.4952L12.8445 15.2922L12.5949 14.92L12.4167 14.6156L12.1315 14.0742L11.8463 13.4991L11.6324 12.9916L11.4185 12.4165L11.2045 11.706L10.9907 10.7587L10.8837 9.94671L10.8481 9.40539V8.15357L10.9194 7.30778L11.0263 6.69879L11.1689 6.05597L11.3115 5.48081L11.5254 4.87185L11.8106 4.09371L12.1671 3.28173L12.5593 2.57126L12.7732 2.1991L13.0584 1.69162L13.3793 1.21797L13.5575 0.981136L13.7001 0.744312L14.0566 0.270659L14.2705 0Z" fill="#3A7060"/>
<path d="M30.5986 0.236816H31.4899L31.6682 0.338314L31.8464 0.710467L32.1316 1.35328L32.4168 2.02993L32.5595 2.33442L32.9516 3.24789L33.1298 3.62005L33.3794 4.22903L33.522 4.49969L34.0211 5.68381L34.1637 5.9545L34.4489 6.63111L34.5202 6.73262L34.5915 6.93563L34.7697 7.37544L34.948 7.74758L35.3758 8.72871L35.9105 9.9467L36.1958 10.5895L36.4097 11.0293L36.6236 11.1985L36.7305 11.2323H37.1583L37.4436 11.097L37.8357 10.7925L37.907 10.7248L37.9427 10.8602L37.6931 11.4353L37.5148 11.8413L37.3366 12.1796L37.1227 12.721L36.7305 13.6683L36.3741 14.4802L36.1958 14.9539L35.7323 16.0365L35.5184 16.5778L35.2332 17.2206L35.0906 17.356L34.7697 17.3221L34.5202 16.8147L34.3419 16.4086L34.0924 15.8674L33.6646 14.8862L33.415 14.3449L33.2368 13.9727L33.0586 13.5668L32.5595 12.4503L32.4168 12.1458L32.2386 11.706L32.1673 11.6045L32.096 11.3676L31.9534 11.1308L31.7751 10.691L30.7056 8.32274L30.5273 7.91676L30.2422 7.27394L29.8856 6.49582L29.5291 5.68381L29.3152 5.244L29.137 4.80418L28.8518 4.16136L28.6379 3.72155L28.3883 3.11256L28.2457 2.8419L28.0675 2.40209L27.8892 2.02993L27.8536 1.86077L27.7466 1.92843V7.84909L27.9249 8.01827L28.1388 8.25507L28.2814 8.52575L28.317 8.83022L28.2814 9.13469L28.1031 9.47305L27.8536 9.70985L27.7466 9.77752V14.4125L27.8179 15.4613L27.9249 16.0027L28.1388 16.4086L28.5309 16.8147L28.8874 17.0515L29.4222 17.2545L29.6004 17.2883V17.3221L29.3865 17.356H24.752L24.6094 17.2883L25.2511 17.0176L25.7145 16.7132L25.9641 16.4425L26.178 16.1718L26.3919 15.732L26.5701 15.0892L26.6771 14.2434V9.77752L26.3206 9.47305L26.1067 9.06707V8.59337L26.3206 8.15356L26.6058 7.9506H26.6771V2.46975L26.5701 2.06376L26.3206 1.59011L26.1067 1.28562L25.7502 0.947296L25.3937 0.710467L24.8233 0.43981L24.6094 0.372146L24.645 0.304481L25.1085 0.270649L30.5986 0.236816Z" fill="#3A7060"/>
<path d="M8.3168 20.0288H10.4202L11.4897 20.0964L12.274 20.1979L13.0939 20.3333L13.9852 20.5363L14.627 20.7393L15.0904 20.9084L15.6608 21.1452L16.4094 21.5513L16.8729 21.8896L17.1225 22.0587L17.6216 22.6001L17.7998 22.7692L17.8711 23.006L17.7285 22.9722L17.2294 22.803L16.9442 22.7015L16.5877 22.5662L16.1243 22.4309L15.3399 22.194L14.5556 21.9911L14.2348 21.9234L13.4861 21.7542L12.9157 21.6527L12.274 21.5513L11.1688 21.4159L10.5271 21.3821L10.3133 21.3482H7.74639L6.42736 21.4498L6.14212 21.5174L5.14392 21.6527L4.89436 21.7204L4.32396 21.8219L4.00311 21.9234L3.68225 21.9911L2.79099 22.2617L2.61274 22.3632L2.47014 22.7354L2.18493 23.7503L2.14928 23.9872L2.93359 23.7842L3.46835 23.6489L3.8605 23.5474L4.68046 23.412L4.93002 23.3443L5.50041 23.2767L6.67688 23.1414L7.49687 23.1075H9.49327L10.848 23.1752L10.9549 23.209L11.7393 23.2767L12.4523 23.3782L13.1296 23.5135L13.5574 23.5812L14.4843 23.7842L15.1261 23.9533L15.7321 24.1225L16.5877 24.3931L17.0155 24.5623H17.2294L17.5146 24.3255L17.9068 23.9533L18.2989 23.6489L18.6911 23.3782L19.2971 23.0737L19.6893 22.9384L20.0458 22.8707H21.0797L21.4362 22.9722L21.7927 23.1075L22.0066 23.209L22.5057 23.5135L22.8266 23.7503L23.0761 24.021L23.2544 24.1902L23.6465 24.63L24.003 24.5285L24.4308 24.3593L24.9299 24.1902L25.3934 24.0548L26.3203 23.818L27.0689 23.6489L27.3542 23.5812L27.9602 23.4797L28.5306 23.3782L28.6732 23.3443L29.7071 23.2428L30.5627 23.1752L31.9887 23.1414L33.1652 23.1752L34.2703 23.2767L34.8408 23.3443L34.9477 23.412L34.8051 23.4458L34.0208 23.5135L33.3791 23.5812L33.0939 23.6489L32.5591 23.7165L31.5966 23.8857L30.0993 24.224L29.5289 24.3593L28.8871 24.5285L28.3524 24.6638L28.0315 24.7653L27.4611 24.9006L27.0333 25.036L26.3916 25.2051L25.8925 25.3743L25.3934 25.5096L24.823 25.6788L24.1812 25.8479H23.6821L23.3257 25.7465L22.8622 25.5096L22.1492 25.036L21.6144 24.6977L21.2936 24.5285L20.9371 24.3931L20.6519 24.3255H20.1171L19.7962 24.3931L19.4398 24.5285L19.0833 24.6977L18.5841 25.0698L18.4059 25.239L17.9068 25.7465L17.6929 25.9156L17.5859 25.9494H17.3007L16.9442 25.7803L16.6234 25.6788L15.9816 25.4419L15.6252 25.3404L15.3399 25.239L14.52 25.0021L13.7 24.833L13.3435 24.7653L12.8801 24.6638L11.7393 24.5285L11.6323 24.4947L10.0993 24.427L9.8141 24.3931H8.67334L8.3168 24.427L6.78384 24.4947L5.74998 24.63L5.21522 24.6977L4.60917 24.7991L4.0744 24.9006L3.7892 24.9683L3.11184 25.1036L2.47014 25.2728L1.72147 25.4758L1.07977 25.6788L0.61631 25.8141L0.295458 25.9494L0.0102539 25.9833L0.0459044 25.7465L0.259807 24.9345L0.331108 24.5962L0.47371 24.0548L0.545013 23.7165L0.758915 22.8369L0.865866 22.2955L1.00847 21.7542L1.15107 21.1452L1.32932 21.0438L3.53965 20.6039L3.89616 20.5363L4.78741 20.4009L5.99951 20.2318L6.78384 20.1641L7.28294 20.0964L8.3168 20.0288Z" fill="#3A7060"/>
<path d="M38.0495 7.78149L38.5129 7.81533L38.9051 8.01834L39.119 8.25514L39.2259 8.45816L39.2972 8.72879V8.96564L39.1546 9.37162L38.9051 9.64225L38.5486 9.84526L38.3703 9.8791H38.0495L37.7286 9.81143L37.4077 9.60846L37.1939 9.33778L37.0869 9.06715V8.59345L37.2295 8.28898L37.4434 8.01834L37.8712 7.81533L38.0495 7.78149Z" fill="#3A7060"/>
<path d="M26.6779 19.469V20.0033H26.0122V21.2499H25.3354V20.0033H24.6719V19.469H26.6779ZM28.3886 19.469H29.0655V21.2499H28.3886V20.6287H27.7273V21.2499H27.0526V19.469H27.7273V20.0902H28.3886V19.469ZM29.4511 21.2499V19.469H31.1779V19.9799H30.1257V20.1538H31.1377V20.5651H30.1257V20.7368H31.1779V21.2499H29.4511ZM32.3945 21.2499V19.469H33.2434L33.4958 20.4061H33.5449L33.7974 19.469H34.6463V21.2499H34.0029V20.5545H33.9516L33.7683 21.2499H33.2724L33.0892 20.5545H33.0378V21.2499H32.3945ZM36.5707 21.2499L36.4992 21.0357H35.7352L35.6637 21.2499H34.9668L35.6436 19.469H36.5908L37.2699 21.2499H36.5707ZM35.8938 20.563H36.3406L36.1753 20.0711H36.0592L35.8938 20.563ZM38.4218 21.3092C37.7494 21.3071 37.4433 21.1163 37.4634 20.6393H38.0688C38.0733 20.7453 38.1671 20.8067 38.4218 20.811C38.6407 20.8131 38.7345 20.758 38.7345 20.6944C38.7345 20.6605 38.7256 20.6011 38.5558 20.5799L38.3101 20.5439C37.9571 20.4909 37.5058 20.4676 37.5058 19.9884C37.5058 19.6301 37.8074 19.4097 38.4285 19.4097C38.9825 19.4097 39.369 19.5454 39.3534 20.0753H38.7502C38.7301 19.9715 38.634 19.9079 38.4128 19.9079C38.2229 19.9079 38.1537 19.9588 38.1537 20.0224C38.1537 20.052 38.1693 20.1114 38.2967 20.1305L38.4933 20.1602C38.8708 20.2195 39.407 20.2132 39.407 20.722C39.407 21.1205 39.0853 21.3113 38.4218 21.3092ZM41.6946 19.469V20.0033H41.0289V21.2499H40.352V20.0033H39.6886V19.469H41.6946ZM42.0693 21.2499V19.469H43.7962V19.9799H42.744V20.1538H43.756V20.5651H42.744V20.7368H43.7962V21.2499H42.0693ZM46.1844 21.2499H45.521L45.2841 20.8131H44.8597V21.2499H44.185V19.469H45.2886C45.8158 19.469 46.1152 19.6768 46.1152 20.1644C46.1152 20.3976 46.0079 20.5672 45.8583 20.6732L46.1844 21.2499ZM44.8597 20.0012V20.3361H45.2395C45.3735 20.3361 45.4383 20.2725 45.4383 20.1687C45.4383 20.0648 45.3735 20.0012 45.2395 20.0012H44.8597ZM47.3872 21.3092C46.7148 21.3071 46.4087 21.1163 46.4288 20.6393H47.0342C47.0387 20.7453 47.1325 20.8067 47.3872 20.811C47.6062 20.8131 47.7 20.758 47.7 20.6944C47.7 20.6605 47.691 20.6011 47.5212 20.5799L47.2755 20.5439C46.9226 20.4909 46.4713 20.4676 46.4713 19.9884C46.4713 19.6301 46.7729 19.4097 47.3939 19.4097C47.9479 19.4097 48.3344 19.5454 48.3187 20.0753H47.7156C47.6955 19.9715 47.5995 19.9079 47.3783 19.9079C47.1884 19.9079 47.1191 19.9588 47.1191 20.0224C47.1191 20.052 47.1348 20.1114 47.2621 20.1305L47.4587 20.1602C47.8362 20.2195 48.3724 20.2132 48.3724 20.722C48.3724 21.1205 48.0507 21.3113 47.3872 21.3092ZM51.0847 21.2499L51.0133 21.0357H50.2493L50.1778 21.2499H49.4808L50.1577 19.469H51.1048L51.784 21.2499H51.0847ZM50.4079 20.563H50.8547L50.6893 20.0711H50.5732L50.4079 20.563ZM52.9525 21.3092C52.3114 21.3092 51.8892 20.9339 51.8892 20.3595C51.8892 19.7849 52.3114 19.4097 52.9525 19.4097C53.4239 19.4097 53.9109 19.6068 53.9624 20.2343H53.3189C53.2765 20.0499 53.1446 19.963 52.9525 19.963C52.7358 19.963 52.5594 20.1135 52.5594 20.3595C52.5594 20.6032 52.7358 20.7559 52.9525 20.7559C53.1446 20.7559 53.2765 20.669 53.3189 20.4803H53.9624C53.9109 21.112 53.4306 21.3092 52.9525 21.3092ZM55.714 21.2499L55.6427 21.0357H54.8787L54.8069 21.2499H54.1099L54.787 19.469H55.7344L56.4132 21.2499H55.714ZM55.0374 20.563H55.484L55.3189 20.0711H55.2025L55.0374 20.563ZM57.7021 19.469C58.4773 19.469 58.7433 19.8443 58.7433 20.3595C58.7433 20.8725 58.4773 21.2499 57.7021 21.2499H56.7327V19.469H57.7021ZM57.7021 20.7135C57.901 20.7135 58.064 20.6244 58.064 20.3595C58.064 20.0923 57.901 20.0054 57.7021 20.0054H57.412L57.4093 20.7135H57.7021ZM59.1073 21.2499V19.469H60.8342V19.9799H59.7823V20.1538H60.794V20.5651H59.7823V20.7368H60.8342V21.2499H59.1073ZM61.223 21.2499V19.469H62.0722L62.3247 20.4061H62.3735L62.6261 19.469H63.4748V21.2499H62.8314V20.5545H62.7805L62.5971 21.2499H62.1012L61.9178 20.5545H61.8663V21.2499H61.223ZM65.9893 19.469L65.2232 20.7029V21.2499H64.546V20.6965L63.782 19.469H64.4924L64.8613 20.0966H64.9122L65.2811 19.469H65.9893Z" fill="#FEA800"/>
</g>
</g>
<defs>
<clipPath id="clip0_4001_1097">
<rect width="66" height="26" fill="white"/>
</clipPath>
</defs>
</svg>
