<svg width="1092" height="506" viewBox="0 0 1092 506" fill="none" xmlns="http://www.w3.org/2000/svg">
<g clip-path="url(#clip0_5342_7335)">
<path d="M1092 492.684H0V505.999H1092V492.684Z" fill="#D7D7D7"/>
<mask id="mask0_5342_7335" style="mask-type:luminance" maskUnits="userSpaceOnUse" x="279" y="0" width="534" height="493">
<path d="M812.341 0H279.658V492.684H812.341V0Z" fill="white"/>
</mask>
<g mask="url(#mask0_5342_7335)">
<path d="M300.986 277.413C300.986 157.11 300.986 96.9322 336.899 59.5628C372.813 22.1934 430.62 22.1934 546.261 22.1934C661.876 22.1934 719.708 22.1934 755.619 59.5628C791.531 96.9322 791.531 157.084 791.531 277.413C791.531 397.715 791.531 457.895 755.619 495.263C719.708 532.632 661.898 532.632 546.261 532.632C430.645 532.632 372.813 532.632 336.899 495.263C300.986 457.895 300.986 397.742 300.986 277.413Z" fill="white"/>
<path d="M300.986 196.817H791.531M417.168 116.221H417.401M520.44 116.221H520.675M300.986 277.413C300.986 157.11 300.986 96.9322 336.899 59.5628C372.813 22.1934 430.62 22.1934 546.261 22.1934C661.876 22.1934 719.708 22.1934 755.619 59.5628C791.531 96.9322 791.531 157.084 791.531 277.413C791.531 397.715 791.531 457.895 755.619 495.263C719.708 532.632 661.898 532.632 546.261 532.632C430.645 532.632 372.813 532.632 336.899 495.263C300.986 457.895 300.986 397.742 300.986 277.413Z" stroke="#D7D7D7" stroke-width="11" stroke-linecap="round" stroke-linejoin="round"/>
</g>
<path d="M989.902 237.465H723.561C719.883 237.465 716.902 240.446 716.902 244.123V310.702C716.902 314.379 719.883 317.36 723.561 317.36H989.902C993.58 317.36 996.561 314.379 996.561 310.702V244.123C996.561 240.446 993.58 237.465 989.902 237.465Z" fill="#F6F6F6" stroke="#D7D7D7"/>
<path d="M830.098 253H732.439C729.987 253 728 254.987 728 257.439V261.877C728 264.329 729.987 266.316 732.439 266.316H830.098C832.549 266.316 834.537 264.329 834.537 261.877V257.439C834.537 254.987 832.549 253 830.098 253Z" fill="#D9D9D9"/>
<path d="M870.049 284.07H732.439C729.987 284.07 728 286.058 728 288.509V292.948C728 295.399 729.987 297.386 732.439 297.386H870.049C872.5 297.386 874.488 295.399 874.488 292.948V288.509C874.488 286.058 872.5 284.07 870.049 284.07Z" fill="#D9D9D9"/>
<path d="M981.024 284.07H892.244C889.792 284.07 887.805 286.058 887.805 288.509V292.948C887.805 295.399 889.792 297.386 892.244 297.386H981.024C983.476 297.386 985.463 295.399 985.463 292.948V288.509C985.463 286.058 983.476 284.07 981.024 284.07Z" fill="#D9D9D9"/>
<path d="M989.902 339.551H723.561C719.883 339.551 716.902 342.532 716.902 346.209V412.788C716.902 416.465 719.883 419.446 723.561 419.446H989.902C993.58 419.446 996.561 416.465 996.561 412.788V346.209C996.561 342.532 993.58 339.551 989.902 339.551Z" fill="#F6F6F6" stroke="#D7D7D7"/>
<path d="M830.098 355.086H732.439C729.987 355.086 728 357.073 728 359.525V363.963C728 366.414 729.987 368.402 732.439 368.402H830.098C832.549 368.402 834.537 366.414 834.537 363.963V359.525C834.537 357.073 832.549 355.086 830.098 355.086Z" fill="#D9D9D9"/>
<path d="M870.049 386.156H732.439C729.987 386.156 728 388.143 728 390.595V395.033C728 397.485 729.987 399.472 732.439 399.472H870.049C872.5 399.472 874.488 397.485 874.488 395.033V390.595C874.488 388.143 872.5 386.156 870.049 386.156Z" fill="#D9D9D9"/>
<path d="M981.024 386.156H892.244C889.792 386.156 887.805 388.143 887.805 390.595V395.033C887.805 397.485 889.792 399.472 892.244 399.472H981.024C983.476 399.472 985.463 397.485 985.463 395.033V390.595C985.463 388.143 983.476 386.156 981.024 386.156Z" fill="#D9D9D9"/>
<path d="M325.628 263.623L225.533 290.441C220.796 291.71 217.986 296.577 219.255 301.313L246.075 401.399C247.344 406.135 252.213 408.945 256.949 407.676L357.045 380.858C361.781 379.589 364.591 374.722 363.322 369.986L336.502 269.9C335.233 265.164 330.365 262.354 325.628 263.623Z" fill="#FEA800"/>
<path fill-rule="evenodd" clip-rule="evenodd" d="M278.055 318.833C277.669 317.393 277.871 315.859 278.616 314.569C279.361 313.278 280.589 312.336 282.028 311.951L287.456 310.496C288.896 310.11 290.43 310.312 291.721 311.058C293.011 311.803 293.953 313.03 294.339 314.47L297.248 325.325L308.104 322.416C309.544 322.03 311.078 322.232 312.368 322.978C313.659 323.723 314.601 324.95 314.987 326.389L316.441 331.817C316.827 333.256 316.625 334.79 315.88 336.081C315.134 337.371 313.907 338.313 312.468 338.699L301.611 341.608L304.52 352.463C304.906 353.902 304.704 355.436 303.959 356.726C303.213 358.017 301.986 358.959 300.547 359.344L295.118 360.799C293.679 361.184 292.145 360.983 290.854 360.237C289.563 359.492 288.622 358.265 288.236 356.825L285.327 345.97L274.471 348.879C273.031 349.265 271.497 349.063 270.207 348.317C268.916 347.573 267.974 346.345 267.588 344.906L266.134 339.478C265.748 338.039 265.95 336.505 266.695 335.214C267.44 333.924 268.668 332.982 270.107 332.596L280.964 329.688L278.055 318.833Z" fill="white"/>
</g>
<defs>
<clipPath id="clip0_5342_7335">
<rect width="1092" height="506" fill="white"/>
</clipPath>
</defs>
</svg>
