<svg width="12" height="11" viewBox="0 0 12 11" fill="none" xmlns="http://www.w3.org/2000/svg">
<path fill-rule="evenodd" clip-rule="evenodd" d="M7.42389 1.49918C7.22313 1.32407 6.70132 1.17637 6.00706 1.61327C3.78893 3.01065 1.85647 5.53125 1.20289 6.44485C1.15219 6.5157 1.08804 6.57587 1.01409 6.62192C0.940137 6.66798 0.857841 6.69902 0.771896 6.71326C0.685951 6.72751 0.598041 6.72469 0.513186 6.70497C0.42833 6.68524 0.348191 6.649 0.277344 6.5983C0.206496 6.5476 0.146327 6.48345 0.100274 6.4095C0.0542197 6.33555 0.0231823 6.25325 0.00893345 6.16731C-0.0053154 6.08136 -0.00249664 5.99345 0.0172288 5.9086C0.0369542 5.82374 0.0732 5.7436 0.123897 5.67276C0.787211 4.74677 2.84614 2.03602 5.3004 0.490058C6.36259 -0.178564 7.54771 -0.150262 8.29416 0.497133C8.6665 0.819946 8.89911 1.28427 8.90264 1.81138C8.90618 2.33407 8.68508 2.85234 8.28178 3.31312C7.01972 4.7565 5.35258 6.71372 4.65212 7.66889C4.56014 7.79448 4.55395 7.89 4.56191 7.94483C4.57076 8.00674 4.60348 8.06511 4.6592 8.10668C4.73641 8.15978 4.83115 8.18101 4.92364 8.16593C5.04746 8.1509 5.24203 8.0828 5.47906 7.86612C5.67894 7.68216 5.88677 7.48582 6.1008 7.28505C6.7597 6.66507 7.47165 5.9938 8.1845 5.46934C8.92564 4.92454 9.79237 4.7733 10.4495 5.17483C10.7776 5.37559 11.0084 5.69664 11.0889 6.08047C11.1685 6.46077 11.0925 6.85699 10.9005 7.22137C10.6954 7.61229 10.5167 7.89353 10.3566 8.14648L10.3442 8.16682C10.1905 8.40172 10.0474 8.64341 9.91531 8.89116C9.88598 8.94734 9.86892 9.00912 9.86526 9.0724C9.8616 9.13567 9.87142 9.199 9.89408 9.25819C9.91531 9.31126 9.93565 9.33691 9.94714 9.34752C10.0285 9.35371 10.0993 9.33337 10.2116 9.2467C10.369 9.12376 10.545 8.91592 10.8095 8.56923C10.9163 8.42943 11.0743 8.3378 11.2487 8.3145C11.4231 8.29119 11.5996 8.33813 11.7394 8.44497C11.8792 8.55181 11.9708 8.70982 11.9942 8.88422C12.0175 9.05862 11.9705 9.23514 11.8637 9.37494C11.6116 9.70482 11.3383 10.0506 11.0253 10.2947C10.6786 10.5636 10.2585 10.7272 9.74815 10.66C9.18831 10.5875 8.82128 10.1559 8.65943 9.74285C8.5673 9.50691 8.52674 9.25397 8.54047 9.00105C8.5542 8.74813 8.6219 8.50108 8.73903 8.27649C8.90707 7.95456 9.06626 7.70427 9.2175 7.46636L9.23607 7.43629C9.39261 7.18954 9.54739 6.94455 9.72692 6.60317C9.8021 6.45989 9.79502 6.37764 9.78972 6.35199C9.7884 6.34248 9.78482 6.33342 9.77928 6.32557C9.77374 6.31772 9.7664 6.31131 9.75788 6.30688C9.71985 6.28301 9.45098 6.18483 8.97075 6.5386C8.32866 7.01 7.70337 7.59991 7.0604 8.20485C6.83487 8.41711 6.60669 8.63202 6.37497 8.84428C5.55865 9.5925 4.56457 9.69244 3.86499 9.16887C3.18399 8.65944 2.99738 7.68304 3.58198 6.88529C4.32224 5.87529 6.02917 3.87385 7.28327 2.4402C7.52295 2.16603 7.5769 1.94935 7.57601 1.81934C7.57606 1.75811 7.56251 1.69764 7.53636 1.64227C7.51021 1.58691 7.4721 1.53804 7.42478 1.49918H7.42389ZM9.95599 9.35548L9.95333 9.35371C9.9551 9.35371 9.95599 9.35459 9.95599 9.35548Z" fill="#FEA800"/>
</svg>
