<svg width="24" height="24" viewBox="0 0 24 24" fill="none" xmlns="http://www.w3.org/2000/svg">
<circle cx="12" cy="12" r="11.5" fill="#FEECC9" stroke="#DEDEDE"/>
<path d="M13.9301 15.6784L13.9296 15.6779L9.51302 11.6142L13.9301 7.53789C13.9511 7.5185 13.9798 7.5 14.0528 7.5C14.1158 7.5 14.1519 7.51623 14.1886 7.55007C14.2135 7.57306 14.2209 7.58732 14.2226 7.59106C14.2238 7.59367 14.2256 7.59759 14.2256 7.60874C14.2256 7.61989 14.2238 7.62381 14.2226 7.62642C14.2209 7.63016 14.2135 7.64442 14.1886 7.66742L10.31 11.2468L9.91182 11.6143L10.31 11.9817L14.1886 15.5611C14.2045 15.5758 14.208 15.584 14.2086 15.5852L14.2086 15.5852C14.2092 15.5866 14.2124 15.5939 14.2124 15.6134C14.2124 15.6286 14.2099 15.6349 14.2083 15.6384C14.2063 15.6428 14.1991 15.6566 14.1754 15.6785C14.1337 15.7169 14.1002 15.7285 14.0528 15.7285C14.0054 15.7285 13.9718 15.7169 13.9301 15.6784ZM9.45971 11.6143L9.47075 11.6262L9.45971 11.6143Z" fill="#FEA800" stroke="#FEA800"/>
</svg>
