<svg width="22" height="22" viewBox="0 0 22 22" fill="none" xmlns="http://www.w3.org/2000/svg">
<path d="M4 20C8.21 15.249 12.941 8.948 20 13.673M16 3.5C16.491 2.994 17.8 1 18.5 1M18.5 1C19.2 1 20.509 2.994 21 3.5M18.5 1V9" stroke="#9B9B9B" stroke-width="1.5" stroke-linecap="round" stroke-linejoin="round"/>
<path d="M20 12C19.998 16.147 19.947 18.27 18.609 19.609C17.217 21 14.979 21 10.5 21C6.022 21 3.782 21 2.391 19.609C1 18.218 1 15.979 1 11.5C1 7.022 1 4.782 2.391 3.391C3.782 2 6.021 2 10.5 2H13" stroke="#9B9B9B" stroke-width="1.5" stroke-linecap="round" stroke-linejoin="round"/>
</svg>
