<svg class="gateimg" width="27" height="30"  viewBox="0 0 27 30" fill="none" xmlns="http://www.w3.org/2000/svg">
<path d="M26.25 17.5V30H16.875V27.5H8.75V30H0V17.5H26.25ZM20.5931 15.2219C20.2344 13.6537 19.425 12.275 18.1494 11.2213C16.9138 10.1944 15.4519 10 13.7563 9.375H13.75V5.42L14.0775 5.33187L14.7944 5.06625C15.07 4.97312 15.3194 4.895 15.5794 4.84C15.8344 4.77938 16.0112 4.75375 16.1325 4.75375C16.3681 4.75375 16.6663 4.79125 17.015 4.8675C17.37 4.95375 17.7481 5.04688 18.1325 5.1525C18.5331 5.27375 18.8906 5.36562 19.2375 5.44375C19.5681 5.51937 19.845 5.55062 20.0744 5.55062C20.4394 5.55125 20.625 5.50063 21.25 5.38938V0.863125C20.625 1.01188 20.5144 1.09375 20.0737 1.09375C19.8444 1.09375 19.5606 1.05875 19.2294 0.975C18.8837 0.90875 18.5275 0.805625 18.1269 0.689375C17.7697 0.582133 17.4083 0.489143 17.0438 0.410625C16.7044 0.33 16.4837 0.29125 16.2437 0.29125C15.4481 0.29125 14.375 0.479375 13.75 0.82625V0H12.5V9.375H12.4606C10.7781 10 9.305 10.23 8.07063 11.2569C6.81938 12.3119 6.00688 13.6012 5.6225 15.17C5.6225 15.17 4.42438 15 4.42438 16.25H21.9056C21.9056 15 20.5931 15.2219 20.5931 15.2219Z" fill="#FEA800"/>
</svg>
    