<svg width="16" height="16" viewBox="0 0 16 16" fill="none" xmlns="http://www.w3.org/2000/svg">
<path fill-rule="evenodd" clip-rule="evenodd" d="M14.6667 3.11111C14.313 3.11111 13.9739 3.25159 13.7239 3.50164C13.4738 3.75168 13.3333 4.09082 13.3333 4.44444V5.33333H16V4.44444C16 4.09082 15.8595 3.75168 15.6095 3.50164C15.3594 3.25159 15.0203 3.11111 14.6667 3.11111ZM16 6.22222H13.3333V13.5556L14.6667 15.5556L16 13.5556V6.22222ZM0 1.33333V14.6667C0 15.0203 0.140476 15.3594 0.390524 15.6095C0.640573 15.8595 0.979711 16 1.33333 16H11.1111C11.4647 16 11.8039 15.8595 12.0539 15.6095C12.304 15.3594 12.4444 15.0203 12.4444 14.6667V1.33333C12.4444 0.979711 12.304 0.640573 12.0539 0.390524C11.8039 0.140476 11.4647 0 11.1111 0H1.33333C0.979711 0 0.640573 0.140476 0.390524 0.390524C0.140476 0.640573 0 0.979711 0 1.33333ZM6.22222 4C6.22222 3.88213 6.26905 3.76908 6.3524 3.68573C6.43575 3.60238 6.54879 3.55556 6.66667 3.55556H10.2222C10.3401 3.55556 10.4531 3.60238 10.5365 3.68573C10.6198 3.76908 10.6667 3.88213 10.6667 4C10.6667 4.11787 10.6198 4.23092 10.5365 4.31427C10.4531 4.39762 10.3401 4.44444 10.2222 4.44444H6.66667C6.54879 4.44444 6.43575 4.39762 6.3524 4.31427C6.26905 4.23092 6.22222 4.11787 6.22222 4ZM6.66667 5.33333C6.54879 5.33333 6.43575 5.38016 6.3524 5.46351C6.26905 5.54686 6.22222 5.6599 6.22222 5.77778C6.22222 5.89565 6.26905 6.0087 6.3524 6.09205C6.43575 6.1754 6.54879 6.22222 6.66667 6.22222H10.2222C10.3401 6.22222 10.4531 6.1754 10.5365 6.09205C10.6198 6.0087 10.6667 5.89565 10.6667 5.77778C10.6667 5.6599 10.6198 5.54686 10.5365 5.46351C10.4531 5.38016 10.3401 5.33333 10.2222 5.33333H6.66667ZM6.22222 9.77778C6.22222 9.6599 6.26905 9.54686 6.3524 9.46351C6.43575 9.38016 6.54879 9.33333 6.66667 9.33333H10.2222C10.3401 9.33333 10.4531 9.38016 10.5365 9.46351C10.6198 9.54686 10.6667 9.6599 10.6667 9.77778C10.6667 9.89565 10.6198 10.0087 10.5365 10.092C10.4531 10.1754 10.3401 10.2222 10.2222 10.2222H6.66667C6.54879 10.2222 6.43575 10.1754 6.3524 10.092C6.26905 10.0087 6.22222 9.89565 6.22222 9.77778ZM6.66667 11.1111C6.54879 11.1111 6.43575 11.1579 6.3524 11.2413C6.26905 11.3246 6.22222 11.4377 6.22222 11.5556C6.22222 11.6734 6.26905 11.7865 6.3524 11.8698C6.43575 11.9532 6.54879 12 6.66667 12H10.2222C10.3401 12 10.4531 11.9532 10.5365 11.8698C10.6198 11.7865 10.6667 11.6734 10.6667 11.5556C10.6667 11.4377 10.6198 11.3246 10.5365 11.2413C10.4531 11.1579 10.3401 11.1111 10.2222 11.1111H6.66667ZM2.66667 9.77778V11.1111H4V9.77778H2.66667ZM2.22222 8.88889H4.44444C4.56232 8.88889 4.67536 8.93571 4.75871 9.01906C4.84206 9.10241 4.88889 9.21546 4.88889 9.33333V11.5556C4.88889 11.6734 4.84206 11.7865 4.75871 11.8698C4.67536 11.9532 4.56232 12 4.44444 12H2.22222C2.10435 12 1.9913 11.9532 1.90795 11.8698C1.8246 11.7865 1.77778 11.6734 1.77778 11.5556V9.33333C1.77778 9.21546 1.8246 9.10241 1.90795 9.01906C1.9913 8.93571 2.10435 8.88889 2.22222 8.88889ZM5.20311 4.31422C5.28407 4.2304 5.32887 4.11813 5.32786 4.0016C5.32684 3.88507 5.2801 3.7736 5.1977 3.69119C5.11529 3.60879 5.00382 3.56205 4.88729 3.56103C4.77076 3.56002 4.65849 3.60482 4.57467 3.68578L3.11111 5.14933L2.53644 4.57467C2.45262 4.49371 2.34035 4.44891 2.22382 4.44992C2.10729 4.45093 1.99582 4.49768 1.91341 4.58008C1.83101 4.66248 1.78427 4.77396 1.78326 4.89049C1.78224 5.00702 1.82704 5.11929 1.908 5.20311L3.11111 6.40622L5.20311 4.31422Z" fill="#187163"/>
</svg>
