<svg width="16" height="14" viewBox="0 0 16 14" fill="none" xmlns="http://www.w3.org/2000/svg">
<path d="M15.2354 10.8232C15.0187 10.8232 14.8372 10.7498 14.6909 10.603C14.5441 10.4567 14.4707 10.2752 14.4707 10.0586V5.54725L8.33453 8.89253C8.21983 8.95625 8.10182 9.00391 7.9805 9.03552C7.85969 9.06763 7.72919 9.08369 7.58901 9.08369C7.44883 9.08369 7.31833 9.06763 7.19752 9.03552C7.07619 9.00391 6.95818 8.95625 6.84349 8.89253L0.401434 5.37521C0.273994 5.31149 0.175356 5.21897 0.10552 5.09765C0.0351732 4.97683 0 4.84634 0 4.70615C0 4.56597 0.0351732 4.43547 0.10552 4.31466C0.175356 4.19334 0.273994 4.10082 0.401434 4.0371L6.86261 0.519772C6.9773 0.456053 7.09505 0.408135 7.21587 0.376021C7.33719 0.344416 7.46157 0.328613 7.58901 0.328613C7.71645 0.328613 7.84083 0.344416 7.96215 0.376021C8.08296 0.408135 8.20072 0.456053 8.31541 0.519772L15.5986 4.49588C15.726 4.5596 15.8249 4.65186 15.8952 4.77268C15.9651 4.894 16 5.02475 16 5.16493V10.0586C16 10.2752 15.9266 10.4567 15.7798 10.603C15.6335 10.7498 15.452 10.8232 15.2354 10.8232ZM7.58901 13.6715C7.46157 13.6715 7.33719 13.6557 7.21587 13.6241C7.09505 13.592 6.9773 13.5441 6.86261 13.4803L3.03943 11.4158C2.78455 11.2756 2.58702 11.0878 2.44683 10.8523C2.30665 10.6163 2.23656 10.3517 2.23656 10.0586V7.15299L6.57587 9.50424C6.74154 9.59345 6.90721 9.67297 7.07288 9.74281C7.23855 9.81315 7.41059 9.84833 7.58901 9.84833C7.76742 9.84833 7.94278 9.81009 8.11508 9.73363C8.28687 9.65717 8.4556 9.57433 8.62127 9.48513L12.9415 7.15299V10.0586C12.9415 10.3517 12.8714 10.6163 12.7312 10.8523C12.591 11.0878 12.3935 11.2756 12.1386 11.4158L8.31541 13.4803C8.20072 13.5441 8.08296 13.592 7.96215 13.6241C7.84083 13.6557 7.71645 13.6715 7.58901 13.6715Z" fill="#187163"/>
</svg>
