<svg width="20" height="20" viewBox="0 0 20 20" fill="none" xmlns="http://www.w3.org/2000/svg">
<path d="M10.0076 19.1C15.0294 19.1 19.1001 15.0257 19.1001 10C19.1001 4.97429 15.0294 0.9 10.0076 0.9C4.98591 0.9 0.915137 4.97429 0.915137 10C0.915137 15.0257 4.98591 19.1 10.0076 19.1Z" stroke="#5C5C5C" stroke-width="0.2"/>
<path d="M10.0078 10.7929L7.74126 8.14645C7.57403 7.95118 7.3029 7.95118 7.13568 8.14645C6.96845 8.34171 6.96845 8.65829 7.13568 8.85355L9.70496 11.8536C9.87219 12.0488 10.1433 12.0488 10.3105 11.8536L12.8798 8.85355C13.0471 8.65829 13.0471 8.34171 12.8798 8.14645C12.7126 7.95118 12.4415 7.95118 12.2743 8.14645L10.0078 10.7929Z" fill="#565656"/>
<mask id="mask0_1_238" style="mask-type:luminance" maskUnits="userSpaceOnUse" x="7" y="8" width="7" height="4">
<path d="M10.0078 10.7929L7.74126 8.14645C7.57403 7.95118 7.3029 7.95118 7.13568 8.14645C6.96845 8.34171 6.96845 8.65829 7.13568 8.85355L9.70496 11.8536C9.87219 12.0488 10.1433 12.0488 10.3105 11.8536L12.8798 8.85355C13.0471 8.65829 13.0471 8.34171 12.8798 8.14645C12.7126 7.95118 12.4415 7.95118 12.2743 8.14645L10.0078 10.7929Z" fill="white"/>
</mask>
<g mask="url(#mask0_1_238)">
</g>
</svg>
