<svg width="16" height="16" viewBox="0 0 16 16" fill="none" xmlns="http://www.w3.org/2000/svg">
<path d="M2 0H11.2C11.7304 0 12.2391 0.20068 12.6142 0.557892C12.9893 0.915104 13.2 1.39959 13.2 1.90476V7.09562C12.2884 6.81432 11.3129 6.7784 10.3812 6.99182C9.44952 7.20524 8.59787 7.6597 7.92028 8.30502C7.24268 8.95035 6.7655 9.76145 6.54141 10.6488C6.31732 11.5361 6.35504 12.4651 6.6504 13.3333H1.2C1.2 13.5354 1.28429 13.7292 1.43431 13.8721C1.58434 14.015 1.78783 14.0952 2 14.0952H6.9856C7.21448 14.5133 7.50487 14.8982 7.848 15.2381H2C1.46957 15.2381 0.960859 15.0374 0.585786 14.6802C0.210714 14.323 0 13.8385 0 13.3333V1.90476C0 1.39959 0.210714 0.915104 0.585786 0.557892C0.960859 0.20068 1.46957 0 2 0ZM3.2 2.28571C2.98783 2.28571 2.78434 2.36599 2.63431 2.50887C2.48429 2.65176 2.4 2.84555 2.4 3.04762V3.80952C2.4 4.01159 2.48429 4.20539 2.63431 4.34827C2.78434 4.49116 2.98783 4.57143 3.2 4.57143H9.6C9.81217 4.57143 10.0157 4.49116 10.1657 4.34827C10.3157 4.20539 10.4 4.01159 10.4 3.80952V3.04762C10.4 2.84555 10.3157 2.65176 10.1657 2.50887C10.0157 2.36599 9.81217 2.28571 9.6 2.28571H3.2ZM16 11.8095C16 10.6981 15.5364 9.63228 14.7113 8.84641C13.8861 8.06054 12.767 7.61905 11.6 7.61905C10.433 7.61905 9.31389 8.06054 8.48873 8.84641C7.66357 9.63228 7.2 10.6981 7.2 11.8095C7.2 12.9209 7.66357 13.9868 8.48873 14.7726C9.31389 15.5585 10.433 16 11.6 16C12.767 16 13.8861 15.5585 14.7113 14.7726C15.5364 13.9868 16 12.9209 16 11.8095ZM11.1312 9.97867L13.376 11.3806C13.4459 11.4232 13.5005 11.4799 13.54 11.5505C13.58 11.6196 13.6 11.6952 13.6 11.7775C13.6001 11.8565 13.5803 11.9343 13.5424 12.0046C13.5058 12.0738 13.4513 12.1331 13.384 12.1768L11.1384 13.6358C11.0995 13.6612 11.0569 13.6809 11.012 13.6945C10.908 13.7262 10.7954 13.7199 10.696 13.677C10.6388 13.6512 10.5866 13.6164 10.5416 13.5741C10.498 13.5293 10.4629 13.4778 10.4376 13.4217C10.4123 13.3646 10.3995 13.3031 10.4 13.2411V10.3779C10.3994 10.2862 10.4268 10.1963 10.479 10.1192C10.5311 10.042 10.6057 9.98105 10.6936 9.94362C10.7633 9.91234 10.8404 9.89904 10.9172 9.90506C10.994 9.91108 11.0678 9.9362 11.1312 9.9779" fill="#187163"/>
</svg>
