<svg width="16" height="17" viewBox="0 0 16 17" fill="none" xmlns="http://www.w3.org/2000/svg">
<path fill-rule="evenodd" clip-rule="evenodd" d="M2.4 0.5C1.76348 0.5 1.15303 0.752856 0.702944 1.20294C0.252856 1.65303 0 2.26348 0 2.9V14.1C0 14.7365 0.252856 15.347 0.702944 15.7971C1.15303 16.2471 1.76348 16.5 2.4 16.5H7.2C7.83652 16.5 8.44697 16.2471 8.89706 15.7971C9.34714 15.347 9.6 14.7365 9.6 14.1V2.9C9.6 2.26348 9.34714 1.65303 8.89706 1.20294C8.44697 0.752856 7.83652 0.5 7.2 0.5H2.4ZM10.6344 4.7344C10.7844 4.58442 10.9879 4.50017 11.2 4.50017C11.4121 4.50017 11.6156 4.58442 11.7656 4.7344L14.9656 7.9344C15.1156 8.08442 15.1998 8.28787 15.1998 8.5C15.1998 8.71213 15.1156 8.91558 14.9656 9.0656L11.7656 12.2656C11.6147 12.4113 11.4126 12.492 11.2029 12.4901C10.9931 12.4883 10.7925 12.4042 10.6441 12.2559C10.4958 12.1075 10.4117 11.9069 10.4099 11.6971C10.408 11.4874 10.4887 11.2853 10.6344 11.1344L12.4688 9.3H5.6C5.38783 9.3 5.18434 9.21571 5.03431 9.06569C4.88429 8.91566 4.8 8.71217 4.8 8.5C4.8 8.28783 4.88429 8.08434 5.03431 7.93431C5.18434 7.78429 5.38783 7.7 5.6 7.7H12.4688L10.6344 5.8656C10.4844 5.71558 10.4002 5.51213 10.4002 5.3C10.4002 5.08787 10.4844 4.88442 10.6344 4.7344Z" fill="#187163"/>
</svg>
