<svg width="20" height="20" viewBox="0 0 20 20" fill="none" xmlns="http://www.w3.org/2000/svg">
<path d="M10.0075 0.9C4.98576 0.9 0.914988 4.97429 0.914988 10C0.914988 15.0257 4.98576 19.1 10.0075 19.1C15.0292 19.1 19.1 15.0257 19.1 10C19.1 4.97429 15.0292 0.9 10.0075 0.9Z" stroke="#5C5C5C" stroke-width="0.2"/>
<path d="M10.0074 9.20711L12.2739 11.8536C12.4411 12.0488 12.7122 12.0488 12.8795 11.8536C13.0467 11.6583 13.0467 11.3417 12.8795 11.1464L10.3102 8.14645C10.1429 7.95118 9.87182 7.95118 9.70459 8.14645L7.1353 11.1464C6.96807 11.3417 6.96807 11.6583 7.1353 11.8536C7.30253 12.0488 7.57366 12.0488 7.74089 11.8536L10.0074 9.20711Z" fill="#565656"/>
<mask id="mask0_3731_10933" style="mask-type:luminance" maskUnits="userSpaceOnUse" x="7" y="8" width="7" height="4">
<path d="M10.0074 9.20711L12.2739 11.8536C12.4411 12.0488 12.7122 12.0488 12.8795 11.8536C13.0467 11.6583 13.0467 11.3417 12.8795 11.1464L10.3102 8.14645C10.1429 7.95118 9.87182 7.95118 9.70459 8.14645L7.1353 11.1464C6.96807 11.3417 6.96807 11.6583 7.1353 11.8536C7.30253 12.0488 7.57366 12.0488 7.74089 11.8536L10.0074 9.20711Z" fill="white"/>
</mask>
<g mask="url(#mask0_3731_10933)">
</g>
</svg>
