<svg width="30" height="30" viewBox="0 0 30 30" fill="none" xmlns="http://www.w3.org/2000/svg">
<path d="M11.7857 30V25.9821C11.7857 25.2429 12.3857 24.6429 13.125 24.6429H16.875C17.6143 24.6429 18.225 25.2429 18.225 25.9929V30H30V7.82143C30 7.49781 29.9363 7.17737 29.8124 6.87839C29.6886 6.57941 29.5071 6.30775 29.2782 6.07892C29.0494 5.85009 28.7777 5.66857 28.4788 5.54472C28.1798 5.42088 27.8593 5.35714 27.5357 5.35714H25.7143V2.63571C25.7143 1.17857 24.5357 0 23.0786 0H6.92143C5.46429 0 4.28571 1.17857 4.28571 2.63571V5.35714H2.46429C2.14067 5.35714 1.82023 5.42088 1.52124 5.54472C1.22226 5.66857 0.950603 5.85009 0.721772 6.07892C0.492942 6.30775 0.311424 6.57941 0.187582 6.87839C0.0637405 7.17737 0 7.49781 0 7.82143V30H11.7857ZM4.28571 23.5714H3.21429C2.625 23.5714 2.14286 23.0893 2.14286 22.5V21.4286C2.14286 20.8393 2.625 20.3571 3.21429 20.3571H4.28571V23.5714ZM4.28571 18.2143H3.21429C2.625 18.2143 2.14286 17.7321 2.14286 17.1429V16.0714C2.14286 15.4821 2.625 15 3.21429 15H4.28571V18.2143ZM4.28571 12.8571H3.21429C2.625 12.8571 2.14286 12.375 2.14286 11.7857V10.7143C2.14286 10.125 2.625 9.64286 3.21429 9.64286H4.28571V12.8571ZM25.7143 9.64286H26.7857C27.375 9.64286 27.8571 10.125 27.8571 10.7143V11.7857C27.8571 12.3857 27.375 12.8571 26.7857 12.8571H25.7143V9.64286ZM25.7143 15H26.7857C27.375 15 27.8571 15.4821 27.8571 16.0714V17.1429C27.8571 17.7429 27.375 18.2143 26.7857 18.2143H25.7143V15ZM25.7143 20.3571H26.7857C27.375 20.3571 27.8571 20.8393 27.8571 21.4286V22.5C27.8571 23.1 27.375 23.5714 26.7857 23.5714H25.7143V20.3571ZM10.1786 17.1429C9.88929 17.1429 9.64286 16.9071 9.64286 16.6071V14.4536C9.64286 14.1643 9.87857 13.9179 10.1786 13.9179H13.4036C13.6929 13.9179 13.9393 14.1536 13.9393 14.4536V16.6071C13.9365 16.7502 13.8777 16.8864 13.7755 16.9866C13.6733 17.0868 13.5359 17.1429 13.3929 17.1429H10.1786ZM20.3571 14.4643V16.6179C20.3571 16.9071 20.1214 17.1429 19.8321 17.1536H16.6071C16.3071 17.1536 16.0714 16.9071 16.0714 16.6179V14.4643C16.0714 14.1643 16.3179 13.9286 16.6071 13.9286H19.8214C20.1214 13.9286 20.3571 14.175 20.3571 14.4643ZM13.9286 19.8214V21.975C13.9286 22.2643 13.6929 22.5 13.4036 22.5107H10.1786C9.87857 22.5107 9.64286 22.2643 9.64286 21.975V19.8214C9.64286 19.5214 9.88929 19.2857 10.1786 19.2857H13.3929C13.6929 19.2857 13.9286 19.5321 13.9286 19.8214ZM20.3571 19.8214V21.975C20.3571 22.2643 20.1214 22.5 19.8321 22.5107H16.6071C16.3071 22.5107 16.0714 22.2643 16.0714 21.975V19.8214C16.0714 19.5214 16.3179 19.2857 16.6071 19.2857H19.8214C20.1214 19.2857 20.3571 19.5321 20.3571 19.8214ZM13.9286 3.75V5.90357C13.9286 6.19286 13.6929 6.42857 13.4036 6.43929H10.1786C9.87857 6.43929 9.64286 6.19286 9.64286 5.90357V3.75C9.64286 3.45 9.88929 3.21429 10.1786 3.21429H13.3929C13.6929 3.21429 13.9286 3.46071 13.9286 3.75ZM20.3571 3.75V5.90357C20.3571 6.19286 20.1214 6.42857 19.8321 6.43929H16.6071C16.3071 6.43929 16.0714 6.19286 16.0714 5.90357V3.75C16.0714 3.45 16.3179 3.21429 16.6071 3.21429H19.8214C20.1214 3.21429 20.3571 3.46071 20.3571 3.75ZM13.9286 9.10714V11.2607C13.9286 11.55 13.6929 11.7857 13.4036 11.7964H10.1786C9.87857 11.7964 9.64286 11.55 9.64286 11.2607V9.10714C9.64286 8.80714 9.88929 8.57143 10.1786 8.57143H13.3929C13.6929 8.57143 13.9286 8.81786 13.9286 9.10714ZM20.3571 9.10714V11.2607C20.3571 11.55 20.1214 11.7857 19.8321 11.7964H16.6071C16.3071 11.7964 16.0714 11.55 16.0714 11.2607V9.10714C16.0714 8.80714 16.3179 8.57143 16.6071 8.57143H19.8214C20.1214 8.57143 20.3571 8.81786 20.3571 9.10714Z" fill="#FEA800"/>
</svg>
