<svg width="25" height="25" viewBox="0 0 25 25" fill="none" xmlns="http://www.w3.org/2000/svg">
<path d="M22.7034 22.0852C23.0432 22.0856 23.3701 22.2157 23.6172 22.449C23.8643 22.6823 24.013 23.0012 24.0329 23.3404C24.0529 23.6797 23.9425 24.0137 23.7244 24.2743C23.5062 24.5349 23.1968 24.7024 22.8594 24.7426L22.6901 24.7519C22.3502 24.7515 22.0233 24.6214 21.7762 24.3881C21.5291 24.1548 21.3804 23.836 21.3605 23.4967C21.3406 23.1575 21.451 22.8234 21.6691 22.5628C21.8872 22.3022 22.1966 22.1347 22.534 22.0946L22.7034 22.0852ZM1.3701 22.0852C1.72372 22.0852 2.06286 22.2257 2.31291 22.4758C2.56296 22.7258 2.70343 23.0649 2.70343 23.4186C2.70343 23.7722 2.56296 24.1113 2.31291 24.3614C2.06286 24.6114 1.72372 24.7519 1.3701 24.7519C1.02904 24.7551 0.699744 24.6274 0.449942 24.3952C0.200141 24.1629 0.0488324 23.8438 0.0271422 23.5034C0.005452 23.163 0.115029 22.8273 0.333334 22.5652C0.551638 22.3032 0.862068 22.1347 1.20077 22.0946L1.3701 22.0852ZM6.70342 22.0852C7.05704 22.0852 7.39618 22.2257 7.64623 22.4758C7.89628 22.7258 8.03675 23.0649 8.03675 23.4186C8.03675 23.7722 7.89628 24.1113 7.64623 24.3614C7.39618 24.6114 7.05704 24.7519 6.70342 24.7519C6.36236 24.7551 6.03306 24.6274 5.78326 24.3952C5.53346 24.1629 5.38215 23.8438 5.36046 23.5034C5.33877 23.163 5.44835 22.8273 5.66665 22.5652C5.88496 22.3032 6.19539 22.1347 6.53409 22.0946L6.70342 22.0852ZM12.0367 22.0852C12.3766 22.0856 12.7035 22.2157 12.9506 22.449C13.1977 22.6823 13.3464 23.0012 13.3663 23.3404C13.3862 23.6797 13.2758 24.0137 13.0577 24.2743C12.8396 24.5349 12.5302 24.7024 12.1927 24.7426L12.0234 24.7519C11.6836 24.7515 11.3567 24.6214 11.1096 24.3881C10.8625 24.1548 10.7138 23.836 10.6938 23.4967C10.6739 23.1575 10.7843 22.8234 11.0024 22.5628C11.2206 22.3022 11.5299 22.1347 11.8674 22.0946L12.0367 22.0852ZM17.3701 22.0852C17.7099 22.0856 18.0368 22.2157 18.2839 22.449C18.531 22.6823 18.6797 23.0012 18.6996 23.3404C18.7195 23.6797 18.6092 24.0137 18.391 24.2743C18.1729 24.5349 17.8635 24.7024 17.5261 24.7426L17.3567 24.7519C17.0169 24.7515 16.69 24.6214 16.4429 24.3881C16.1958 24.1548 16.0471 23.836 16.0272 23.4967C16.0073 23.1575 16.1176 22.8234 16.3358 22.5628C16.5539 22.3022 16.8633 22.1347 17.2007 22.0946L17.3701 22.0852ZM22.7034 0.751953C23.0432 0.75233 23.3701 0.882458 23.6172 1.11575C23.8643 1.34904 24.013 1.66789 24.0329 2.00714C24.0529 2.3464 23.9425 2.68045 23.7244 2.94106C23.5062 3.20166 23.1968 3.36914 22.8594 3.40928L22.6901 3.41861C22.3502 3.41824 22.0233 3.28811 21.7762 3.05482C21.5291 2.82153 21.3804 2.50268 21.3605 2.16342C21.3406 1.82417 21.451 1.49011 21.6691 1.22951C21.8872 0.968905 22.1966 0.801424 22.534 0.761286L22.7034 0.751953ZM1.3701 0.751953C1.72372 0.751953 2.06286 0.892429 2.31291 1.14248C2.56296 1.39252 2.70343 1.73166 2.70343 2.08528C2.70343 2.4389 2.56296 2.77804 2.31291 3.02809C2.06286 3.27814 1.72372 3.41861 1.3701 3.41861C1.02904 3.42177 0.699744 3.2941 0.449942 3.06187C0.200141 2.82964 0.0488324 2.51051 0.0271422 2.17013C0.005452 1.82975 0.115029 1.494 0.333334 1.23194C0.551638 0.969883 0.862068 0.801449 1.20077 0.761286L1.3701 0.751953ZM6.70342 0.751953C7.05704 0.751953 7.39618 0.892429 7.64623 1.14248C7.89628 1.39252 8.03675 1.73166 8.03675 2.08528C8.03675 2.4389 7.89628 2.77804 7.64623 3.02809C7.39618 3.27814 7.05704 3.41861 6.70342 3.41861C6.36236 3.42177 6.03306 3.2941 5.78326 3.06187C5.53346 2.82964 5.38215 2.51051 5.36046 2.17013C5.33877 1.82975 5.44835 1.494 5.66665 1.23194C5.88496 0.969883 6.19539 0.801449 6.53409 0.761286L6.70342 0.751953ZM12.0367 0.751953C12.3766 0.75233 12.7035 0.882458 12.9506 1.11575C13.1977 1.34904 13.3464 1.66789 13.3663 2.00714C13.3862 2.3464 13.2758 2.68045 13.0577 2.94106C12.8396 3.20166 12.5302 3.36914 12.1927 3.40928L12.0234 3.41861C11.6836 3.41824 11.3567 3.28811 11.1096 3.05482C10.8625 2.82153 10.7138 2.50268 10.6938 2.16342C10.6739 1.82417 10.7843 1.49011 11.0024 1.22951C11.2206 0.968905 11.5299 0.801424 11.8674 0.761286L12.0367 0.751953ZM17.3567 0.751953C17.7104 0.751953 18.0495 0.892429 18.2995 1.14248C18.5496 1.39252 18.6901 1.73166 18.6901 2.08528C18.6909 2.26038 18.6573 2.43393 18.5911 2.59603C18.5249 2.75814 18.4274 2.90561 18.3042 3.03004C18.1811 3.15447 18.0346 3.25342 17.8731 3.32124C17.7117 3.38905 17.5385 3.42441 17.3634 3.42528C17.1883 3.42616 17.0147 3.39253 16.8526 3.32634C16.6905 3.26014 16.5431 3.16266 16.4186 3.03947C16.2942 2.91628 16.1953 2.76978 16.1274 2.60835C16.0596 2.44692 16.0243 2.27371 16.0234 2.09862C16.0234 1.34929 16.6207 0.751953 17.3567 0.751953ZM21.3567 6.08527C22.064 6.08527 22.7422 6.36623 23.2423 6.86632C23.7424 7.36642 24.0234 8.04469 24.0234 8.75194V16.7519C24.0234 17.4592 23.7424 18.1374 23.2423 18.6375C22.7422 19.1376 22.064 19.4186 21.3567 19.4186H2.6901C1.98286 19.4186 1.30458 19.1376 0.804484 18.6375C0.304388 18.1374 0.0234375 17.4592 0.0234375 16.7519V8.75194C0.0234375 8.04469 0.304388 7.36642 0.804484 6.86632C1.30458 6.36623 1.98286 6.08527 2.6901 6.08527H21.3567Z" fill="#FEA800"/>
</svg>
