<svg width="16" height="16" viewBox="0 0 16 16" fill="none" xmlns="http://www.w3.org/2000/svg">
<path d="M8 0C6.41775 0 4.87103 0.469192 3.55544 1.34824C2.23985 2.22729 1.21447 3.47672 0.608967 4.93853C0.00346628 6.40034 -0.15496 8.00887 0.153721 9.56072C0.462403 11.1126 1.22433 12.538 2.34315 13.6569C3.46197 14.7757 4.88743 15.5376 6.43928 15.8463C7.99113 16.155 9.59966 15.9965 11.0615 15.391C12.5233 14.7855 13.7727 13.7602 14.6518 12.4446C15.5308 11.129 16 9.58225 16 8C15.9978 5.87895 15.1542 3.84542 13.6544 2.34562C12.1546 0.845814 10.121 0.00223986 8 0ZM10.9477 5.53846H11.6923C11.8555 5.53846 12.012 5.6033 12.1275 5.7187C12.2429 5.83411 12.3077 5.99063 12.3077 6.15384C12.3077 6.31705 12.2429 6.47358 12.1275 6.58899C12.012 6.70439 11.8555 6.76923 11.6923 6.76923H11.0623C10.9845 7.60962 10.596 8.39077 9.97274 8.95983C9.34947 9.5289 8.53629 9.84495 7.69231 9.84615H6.71692L10.8392 13.0531C10.9061 13.1015 10.9626 13.1629 11.0052 13.2337C11.0479 13.3044 11.0759 13.383 11.0875 13.4648C11.0991 13.5465 11.0942 13.6298 11.073 13.7096C11.0517 13.7895 11.0146 13.8642 10.9639 13.9294C10.9132 13.9946 10.8499 14.0489 10.7777 14.0891C10.7056 14.1293 10.6261 14.1545 10.5439 14.1633C10.4618 14.1721 10.3787 14.1643 10.2997 14.1404C10.2207 14.1164 10.1472 14.0768 10.0838 14.0238L4.54539 9.71615C4.44432 9.63739 4.37036 9.52904 4.33383 9.40622C4.2973 9.2834 4.30001 9.15225 4.3416 9.03105C4.38318 8.90985 4.46156 8.80465 4.5658 8.73014C4.67004 8.65562 4.79494 8.61551 4.92308 8.61538H7.69231C8.2102 8.61533 8.71073 8.42868 9.1022 8.08962C9.49367 7.75056 9.74986 7.28181 9.82385 6.76923H4.92308C4.75987 6.76923 4.60334 6.70439 4.48794 6.58899C4.37253 6.47358 4.30769 6.31705 4.30769 6.15384C4.30769 5.99063 4.37253 5.83411 4.48794 5.7187C4.60334 5.6033 4.75987 5.53846 4.92308 5.53846H9.63769C9.46306 5.1703 9.18757 4.85923 8.84322 4.64137C8.49887 4.42352 8.09979 4.30781 7.69231 4.30769H4.92308C4.75987 4.30769 4.60334 4.24286 4.48794 4.12745C4.37253 4.01204 4.30769 3.85552 4.30769 3.69231C4.30769 3.5291 4.37253 3.37257 4.48794 3.25716C4.60334 3.14176 4.75987 3.07692 4.92308 3.07692H11.6923C11.8555 3.07692 12.012 3.14176 12.1275 3.25716C12.2429 3.37257 12.3077 3.5291 12.3077 3.69231C12.3077 3.85552 12.2429 4.01204 12.1275 4.12745C12.012 4.24286 11.8555 4.30769 11.6923 4.30769H10.3015C10.5999 4.6687 10.82 5.08783 10.9477 5.53846Z" fill="#187163"/>
</svg>
