<svg width="27" height="27" viewBox="0 0 27 27" fill="none" xmlns="http://www.w3.org/2000/svg">
<path d="M22.9587 6.71615C24.4314 6.71615 25.6253 5.52224 25.6253 4.04948C25.6253 2.57672 24.4314 1.38281 22.9587 1.38281C21.4859 1.38281 20.292 2.57672 20.292 4.04948C20.292 5.52224 21.4859 6.71615 22.9587 6.71615Z" stroke="#FEA800" stroke-width="2.5" stroke-linecap="round" stroke-linejoin="round"/>
<path d="M4.29167 25.3822C5.76443 25.3822 6.95833 24.1883 6.95833 22.7155C6.95833 21.2427 5.76443 20.0488 4.29167 20.0488C2.81891 20.0488 1.625 21.2427 1.625 22.7155C1.625 24.1883 2.81891 25.3822 4.29167 25.3822Z" stroke="#FEA800" stroke-width="2.5" stroke-linecap="round" stroke-linejoin="round"/>
<path d="M4.29102 20.0488C4.29102 15.8054 5.97673 11.7357 8.97731 8.73512C11.9779 5.73454 16.0476 4.04883 20.291 4.04883" stroke="#FEA800" stroke-width="2.5" stroke-linecap="round" stroke-linejoin="round"/>
</svg>
