<svg width="16" height="18" viewBox="0 0 16 18" fill="none" xmlns="http://www.w3.org/2000/svg">
<path d="M9.53918 17.2089H6.46082C6.2556 17.2089 6.07774 17.1405 5.92724 17.0037C5.77674 16.8669 5.68781 16.6959 5.66045 16.4906L5.41418 14.5821C5.23632 14.5137 5.06886 14.4316 4.91179 14.3358C4.75418 14.24 4.60012 14.1374 4.44963 14.028L2.66418 14.7668C2.47264 14.8352 2.28109 14.842 2.08955 14.7873C1.89801 14.7326 1.74751 14.6163 1.63806 14.4384L0.119403 11.791C0.00995024 11.6132 -0.0242537 11.4216 0.016791 11.2164C0.0578358 11.0112 0.160448 10.847 0.324627 10.7239L1.86381 9.55408C1.85012 9.4583 1.84328 9.36582 1.84328 9.27661V8.72251C1.84328 8.63385 1.85012 8.54164 1.86381 8.44587L0.324627 7.27609C0.160448 7.15296 0.0578358 6.98878 0.016791 6.78355C-0.0242537 6.57833 0.00995024 6.38679 0.119403 6.20893L1.63806 3.56154C1.73383 3.37 1.88077 3.25014 2.07888 3.20199C2.27754 3.15437 2.47264 3.16477 2.66418 3.23318L4.44963 3.97199C4.60012 3.86253 4.75746 3.75992 4.92164 3.66415C5.08582 3.56838 5.25 3.48629 5.41418 3.41788L5.66045 1.5093C5.68781 1.30408 5.77674 1.13306 5.92724 0.996239C6.07774 0.859424 6.2556 0.791016 6.46082 0.791016H9.53918C9.7444 0.791016 9.92226 0.859424 10.0728 0.996239C10.2233 1.13306 10.3122 1.30408 10.3396 1.5093L10.5858 3.41788C10.7637 3.48629 10.9314 3.56838 11.089 3.66415C11.2461 3.75992 11.3999 3.86253 11.5504 3.97199L13.3358 3.23318C13.5274 3.16477 13.7189 3.15793 13.9104 3.21266C14.102 3.26738 14.2525 3.38368 14.3619 3.56154L15.8806 6.20893C15.99 6.38679 16.0243 6.57833 15.9832 6.78355C15.9422 6.98878 15.8396 7.15296 15.6754 7.27609L14.1362 8.44587C14.1499 8.54164 14.1567 8.63385 14.1567 8.72251V9.27661C14.1567 9.36582 14.143 9.4583 14.1157 9.55408L15.6549 10.7239C15.819 10.847 15.9216 11.0112 15.9627 11.2164C16.0037 11.4216 15.9695 11.6132 15.8601 11.791L14.3414 14.4179C14.232 14.5957 14.0782 14.7156 13.8801 14.7774C13.6814 14.8387 13.4863 14.8352 13.2948 14.7668L11.5504 14.028C11.3999 14.1374 11.2425 14.24 11.0784 14.3358C10.9142 14.4316 10.75 14.5137 10.5858 14.5821L10.3396 16.4906C10.3122 16.6959 10.2233 16.8669 10.0728 17.0037C9.92226 17.1405 9.7444 17.2089 9.53918 17.2089ZM8.04105 11.8731C8.83458 11.8731 9.51182 11.5926 10.0728 11.0317C10.6337 10.4707 10.9142 9.7935 10.9142 8.99997C10.9142 8.20644 10.6337 7.5292 10.0728 6.96825C9.51182 6.40731 8.83458 6.12684 8.04105 6.12684C7.23383 6.12684 6.55303 6.40731 5.99866 6.96825C5.44483 7.5292 5.16791 8.20644 5.16791 8.99997C5.16791 9.7935 5.44483 10.4707 5.99866 11.0317C6.55303 11.5926 7.23383 11.8731 8.04105 11.8731Z" fill="#187163"/>
</svg>
