<svg width="25" height="24" viewBox="0 0 25 24" fill="none" xmlns="http://www.w3.org/2000/svg">
<path d="M23.9605 3.76157L12.891 0.0717698C12.6076 -0.0239232 12.3005 -0.0239232 12.017 0.0717698L0.947619 3.76157C0.683492 3.84905 0.451873 4.01413 0.282995 4.23525C0.114118 4.45638 0.0158275 4.72328 0.000954097 5.00111C-0.000318032 5.02531 -0.000318032 5.04956 0.000954097 5.07376V14.2983C0.000954097 14.6652 0.146734 15.0172 0.406223 15.2767C0.665713 15.5362 1.01766 15.6819 1.38463 15.6819C1.7516 15.6819 2.10355 15.5362 2.36304 15.2767C2.62253 15.0172 2.76831 14.6652 2.76831 14.2983V6.99361L5.50222 7.90453C4.65375 9.52861 4.40161 11.3988 4.78968 13.1896C5.17776 14.9804 6.18148 16.5784 7.62616 17.7056C5.73563 18.6378 4.13564 20.0688 2.99892 21.8439C2.89655 21.9961 2.82545 22.167 2.78974 22.3469C2.75404 22.5267 2.75444 22.7119 2.79092 22.8916C2.8274 23.0713 2.89924 23.242 3.00226 23.3937C3.10529 23.5454 3.23743 23.6751 3.39102 23.7753C3.54461 23.8754 3.71658 23.9441 3.89694 23.9772C4.07729 24.0104 4.26243 24.0073 4.4416 23.9683C4.62077 23.9292 4.79039 23.8549 4.94059 23.7498C5.0908 23.6446 5.21861 23.5106 5.31658 23.3556C6.962 20.8235 9.57138 19.3717 12.454 19.3717C15.3367 19.3717 17.9461 20.8235 19.5973 23.3556C19.6952 23.5106 19.823 23.6446 19.9732 23.7498C20.1235 23.8549 20.2931 23.9292 20.4722 23.9683C20.6514 24.0073 20.8365 24.0104 21.0169 23.9772C21.1973 23.9441 21.3692 23.8754 21.5228 23.7753C21.6764 23.6751 21.8086 23.5454 21.9116 23.3937C22.0146 23.242 22.0864 23.0713 22.1229 22.8916C22.1594 22.7119 22.1598 22.5267 22.1241 22.3469C22.0884 22.167 22.0173 21.9961 21.9149 21.8439C20.7771 20.0667 19.175 18.6345 17.2819 17.7021C18.7266 16.575 19.7303 14.9769 20.1184 13.1861C20.5065 11.3953 20.2543 9.52515 19.4059 7.90107L23.9605 6.38248C24.2356 6.29043 24.4749 6.1142 24.6444 5.87873C24.8139 5.64325 24.9051 5.36045 24.9051 5.0703C24.9051 4.78015 24.8139 4.49734 24.6444 4.26187C24.4749 4.0264 24.2356 3.85017 23.9605 3.75811V3.76157ZM12.454 2.83912L19.1476 5.07376L12.454 7.30494L5.76627 5.07376L12.454 2.83912ZM17.5275 11.5309C17.5277 12.319 17.3442 13.0962 16.9918 13.801C16.6393 14.5059 16.1275 15.1189 15.4969 15.5915C14.8664 16.0642 14.1344 16.3834 13.359 16.524C12.5836 16.6645 11.7861 16.6225 11.0297 16.4013C10.2734 16.1801 9.57896 15.7857 9.00152 15.2494C8.42409 14.7132 7.97952 14.0498 7.70304 13.3118C7.42657 12.5739 7.3258 11.7817 7.40873 10.998C7.49165 10.2143 7.75599 9.46075 8.18079 8.797L12.017 10.0757C12.3006 10.171 12.6075 10.171 12.891 10.0757L16.7273 8.797C17.2505 9.61278 17.5283 10.5617 17.5275 11.5309Z" fill="#FEA800"/>
</svg>
