<svg width="12" height="14" viewBox="0 0 12 14" fill="none" xmlns="http://www.w3.org/2000/svg">
<path d="M5.6 0C4.85739 0 4.1452 0.294999 3.6201 0.820101C3.095 1.3452 2.8 2.05739 2.8 2.8C2.8 3.54261 3.095 4.2548 3.6201 4.7799C4.1452 5.305 4.85739 5.6 5.6 5.6C6.34261 5.6 7.0548 5.305 7.5799 4.7799C8.105 4.2548 8.4 3.54261 8.4 2.8C8.4 2.05739 8.105 1.3452 7.5799 0.820101C7.0548 0.294999 6.34261 0 5.6 0ZM9.1 7H2.1C1.54305 7 1.0089 7.22125 0.615076 7.61508C0.221249 8.0089 0 8.54305 0 9.1C0 10.6624 0.6426 11.914 1.6968 12.761C2.7342 13.594 4.1258 14 5.6 14C7.0742 14 8.4658 13.594 9.5032 12.761C10.556 11.914 11.2 10.6624 11.2 9.1C11.2 8.54305 10.9788 8.0089 10.5849 7.61508C10.1911 7.22125 9.65695 7 9.1 7Z" fill="#187163"/>
</svg>
